#N canvas 12 108 1056 771 12;
#X obj 767 354 outlet;
#X obj 361 173 soundfiler;
#X obj 331 474 line~;
#X msg 331 450 0 \, \$1 \$2;
#X obj 331 423 pack f f;
#X obj 384 237 / 11.025;
#X obj 407 365 line~;
#X obj 388 545 *~;
#X obj 361 204 t f f b;
#X msg 407 315 0 \, 1 500;
#X obj 361 94 inlet;
#X msg 799 325 1;
#X msg 767 325 0;
#X obj 767 299 delay;
#X obj 387 571 outlet~;
#X obj 332 500 tabread4~ \$0-audioBuffer;
#X obj 414 88 int \$0;
#X obj 414 57 loadbang;
#X obj 361 119 pack s f;
#X obj 610 140 inlet;
#X obj 767 272 - 1000;
#X msg 361 144 read ../sounds/\$1 \$2-audioBuffer;
#X obj 47 59 table \$0-audioBuffer 1.323e+06;
#X text 45 36 2 min buffer;
#X text 818 354 <- sound active;
#X msg 478 315 0 500;
#X obj 598 214 - 500;
#X obj 598 240 delay;
#X msg 642 213 stop;
#X obj 767 243 t f b;
#X obj 610 166 t b b;
#X obj 767 216 r \$0-fileLenMS;
#X obj 598 190 r \$0-fileLenMS;
#X obj 396 269 s \$0-fileLenMS;
#X obj 771 424 r \$0-fileLenMS;
#X obj 771 450 s fileLenMS;
#X connect 1 0 8 0;
#X connect 2 0 15 0;
#X connect 3 0 2 0;
#X connect 4 0 3 0;
#X connect 5 0 4 1;
#X connect 5 0 33 0;
#X connect 6 0 7 1;
#X connect 7 0 14 0;
#X connect 8 0 4 0;
#X connect 8 1 5 0;
#X connect 8 2 9 0;
#X connect 9 0 6 0;
#X connect 10 0 18 0;
#X connect 11 0 0 0;
#X connect 12 0 0 0;
#X connect 13 0 12 0;
#X connect 15 0 7 0;
#X connect 16 0 18 1;
#X connect 17 0 16 0;
#X connect 18 0 21 0;
#X connect 19 0 30 0;
#X connect 20 0 13 0;
#X connect 21 0 1 0;
#X connect 25 0 6 0;
#X connect 26 0 27 0;
#X connect 27 0 25 0;
#X connect 28 0 27 0;
#X connect 29 0 20 0;
#X connect 29 1 11 0;
#X connect 30 0 25 0;
#X connect 30 1 28 0;
#X connect 31 0 29 0;
#X connect 32 0 26 0;
#X connect 34 0 35 0;
