#N canvas 891 0 967 948 12;
#X floatatom 321 347 5 0 0 0 - - - 0;
#X msg 194 214 send got anything?;
#X obj 194 273 route play;
#X obj 212 424 spigot 1;
#X obj 365 426 spigot 0;
#X obj 215 543 playBuffer;
#X obj 282 570 s moarData;
#X obj 199 44 r moarData;
#X obj 437 569 s moarData;
#X obj 360 542 playBuffer;
#X obj 256 694 *~;
#X obj 277 606 r vol;
#X obj 273 666 line~;
#X msg 275 635 \$1 100;
#X obj 376 684 *~;
#X obj 397 596 r vol;
#X obj 393 656 line~;
#X msg 395 625 \$1 100;
#X obj 334 750 +~;
#X obj 611 166 vsl 15 128 0 1 0 0 empty empty empty 0 -9 0 10 #fcfcfc #000000 #000000 0 1;
#X obj 607 313 s vol;
#X obj 600 110 loadbang;
#X msg 612 140 0.5;
#X obj 159 460 + 1;
#X obj 177 378 % 2;
#X obj 159 422 i 0;
#X obj 416 441 == 0;
#X obj 302 143 delay 100;
#X msg 199 175 bang;
#X obj 199 72 select 0;
#X obj 84 182 r pyPort;
#X msg 84 207 listen \$1;
#X msg 68 536 \; pd dsp 1;
#X obj 68 510 loadbang;
#X obj 134 243 t b a;
#X obj 336 99 delay 1000;
#X msg 334 70 stop;
#X obj 302 38 t b b;
#X text 415 99 <- no response;
#X obj 427 202 print;
#N canvas 843 99 656 646 sendToLEDs 0;
#X msg 270 192 listen \$1;
#X obj 270 158 r port4LEDs;
#X obj 270 227 netreceive;
#X obj 297 72 r fileToPlay;
#X obj 216 43 r fileLenMS;
#X obj 216 98 list prepend;
#X floatatom 337 256 5 0 0 0 - - - 0;
#X msg 104 195 send amplitude \$1;
#X obj 104 163 r amplitude;
#X obj 387 359 cnv 20 170 200 empty empty empty 20 12 0 12 #ffe3c6 #404040 0;
#X obj 398 491 netsend;
#X obj 444 538 print recv;
#X obj 398 431 pipe 100;
#X msg 398 458 connect localhost \$1;
#X obj 398 406 r port4LEDsTest;
#X text 429 360 FOR TESTING;
#X obj 444 515 spigot 1;
#X obj 496 489 tgl 20 0 empty empty empty 0 -10 0 12 #fcfcfc #000000 #000000 0 1;
#X obj 483 378 loadbang;
#X msg 496 433 1;
#X msg 383 194 listen 6003;
#X msg 216 126 send sound \$1 \$3;
#X connect 0 0 2 0;
#X connect 1 0 0 0;
#X connect 2 1 6 0;
#X connect 3 0 5 1;
#X connect 4 0 5 0;
#X connect 5 0 21 0;
#X connect 7 0 2 0;
#X connect 8 0 7 0;
#X connect 10 1 16 0;
#X connect 12 0 13 0;
#X connect 13 0 10 0;
#X connect 14 0 12 0;
#X connect 16 0 11 0;
#X connect 17 0 16 1;
#X connect 18 0 19 0;
#X connect 19 0 17 0;
#X connect 20 0 2 0;
#X connect 21 0 2 0;
#X restore 543 435 pd sendToLEDs;
#X obj 277 385 s fileToPlay;
#X obj 208 783 s amplitude;
#X obj 208 757 env~ 512 256;
#X text 98 759 about 40fps ->;
#X obj 212 458 t a b;
#X obj 364 458 t a b;
#X msg 164 45 0;
#X obj 194 306 t b a a b;
#X obj 491 152 print ns;
#X obj 565 70 route volume;
#X msg 518 24 connect localhost 8000;
#X obj 518 47 netsend;
#X obj 518 -4 loadbang;
#X obj 534 107 print;
#X obj 440 24 delay 1000;
#X obj 500 73 select 0;
#X obj 194 244 netreceive;
#X obj 211 503 unpack s f;
#X obj 374 500 unpack s f;
#X obj 366 719 *~;
#X obj 288 721 *~;
#X obj 437 684 line~;
#X msg 439 653 \$1 100;
#X obj 169 673 line~;
#X msg 171 642 \$1 100;
#X obj 31 256 print port;
#X floatatom 44 287 10 0 0 0 - - - 0;
#N canvas 735 336 450 300 hip_hip_hooray 1;
#X obj 74 36 inlet~;
#X obj 162 89 hip~;
#X obj 182 119 hip~;
#X obj 202 149 hip~;
#X obj 222 179 hip~;
#X obj 146 37 inlet;
#X obj 196 37 inlet;
#X obj 246 37 inlet;
#X obj 296 37 inlet;
#X obj 226 217 outlet~;
#X connect 0 0 1 0;
#X connect 1 0 2 0;
#X connect 2 0 3 0;
#X connect 3 0 4 0;
#X connect 4 0 9 0;
#X connect 5 0 1 1;
#X connect 6 0 2 1;
#X connect 7 0 3 1;
#X connect 8 0 4 1;
#X restore 331 878 pd hip_hip_hooray;
#X obj 330 907 dac~ 1;
#X obj 518 635 vsl 20 170 0 127 0 0 empty empty empty 0 -9 0 12 #fcfcfc #000000 #000000 0 1;
#X floatatom 518 815 5 0 0 0 - - - 0;
#X msg 518 606 0;
#X obj 518 579 loadbang;
#X obj 578 635 vsl 20 170 0 127 0 0 empty empty empty 0 -9 0 12 #fcfcfc #000000 #000000 0 1;
#X floatatom 578 815 5 0 0 0 - - - 0;
#X msg 578 606 0;
#X obj 578 579 loadbang;
#X obj 639 635 vsl 20 170 0 127 0 0 empty empty empty 0 -9 0 12 #fcfcfc #000000 #000000 0 1;
#X floatatom 639 815 5 0 0 0 - - - 0;
#X msg 639 606 0;
#X obj 639 579 loadbang;
#X obj 699 635 vsl 20 170 0 127 0 0 empty empty empty 0 -9 0 12 #fcfcfc #000000 #000000 0 1;
#X floatatom 699 815 5 0 0 0 - - - 0;
#X msg 699 606 0;
#X obj 699 579 loadbang;
#X connect 1 0 57 0;
#X connect 2 0 36 0;
#X connect 2 0 48 0;
#X connect 2 1 37 0;
#X connect 3 0 45 0;
#X connect 4 0 46 0;
#X connect 5 0 10 0;
#X connect 5 1 6 0;
#X connect 7 0 29 0;
#X connect 9 0 14 0;
#X connect 9 1 8 0;
#X connect 10 0 61 0;
#X connect 11 0 13 0;
#X connect 12 0 10 1;
#X connect 13 0 12 0;
#X connect 14 0 60 0;
#X connect 15 0 17 0;
#X connect 16 0 14 1;
#X connect 17 0 16 0;
#X connect 18 0 43 0;
#X connect 18 0 68 0;
#X connect 19 0 20 0;
#X connect 21 0 22 0;
#X connect 22 0 19 0;
#X connect 23 0 24 0;
#X connect 24 0 25 1;
#X connect 25 0 23 0;
#X connect 25 0 26 0;
#X connect 25 0 3 1;
#X connect 26 0 4 1;
#X connect 27 0 28 0;
#X connect 28 0 1 0;
#X connect 28 0 35 0;
#X connect 29 0 28 0;
#X connect 30 0 31 0;
#X connect 30 0 66 0;
#X connect 30 0 67 0;
#X connect 31 0 34 0;
#X connect 33 0 32 0;
#X connect 34 0 28 0;
#X connect 34 1 57 0;
#X connect 35 0 27 0;
#X connect 35 0 39 0;
#X connect 36 0 35 0;
#X connect 37 0 27 0;
#X connect 37 1 36 0;
#X connect 43 0 42 0;
#X connect 45 0 58 0;
#X connect 45 1 9 1;
#X connect 46 0 59 0;
#X connect 46 1 5 1;
#X connect 47 0 29 0;
#X connect 48 1 4 0;
#X connect 48 1 3 0;
#X connect 48 2 41 0;
#X connect 48 3 25 0;
#X connect 50 0 19 0;
#X connect 51 0 52 0;
#X connect 52 0 56 0;
#X connect 52 1 50 0;
#X connect 53 0 51 0;
#X connect 55 0 51 0;
#X connect 56 0 55 0;
#X connect 57 0 2 0;
#X connect 57 1 0 0;
#X connect 58 0 5 0;
#X connect 58 1 65 0;
#X connect 59 0 9 0;
#X connect 59 1 63 0;
#X connect 60 0 18 1;
#X connect 61 0 18 0;
#X connect 62 0 60 1;
#X connect 63 0 62 0;
#X connect 64 0 61 1;
#X connect 65 0 64 0;
#X connect 68 0 69 0;
#X connect 70 0 71 0;
#X connect 71 0 68 1;
#X connect 72 0 70 0;
#X connect 73 0 72 0;
#X connect 74 0 75 0;
#X connect 75 0 68 2;
#X connect 76 0 74 0;
#X connect 77 0 76 0;
#X connect 78 0 79 0;
#X connect 79 0 68 3;
#X connect 80 0 78 0;
#X connect 81 0 80 0;
#X connect 82 0 83 0;
#X connect 83 0 68 4;
#X connect 84 0 82 0;
#X connect 85 0 84 0;
