#N canvas 497 581 450 300 12;
#X msg 195 76 send volume \$1;
#X obj 367 56 vsl 20 170 0 1 0 0 empty empty empty 0 -9 0 12 #fcfcfc #000000 #000000 0 1;
#X floatatom 366 239 5 0 0 0 - - - 0;
#X obj 195 99 netreceive 8000;
#X msg 367 29 0.5;
#X obj 367 4 loadbang;
#X connect 0 0 3 0;
#X connect 1 0 2 0;
#X connect 1 0 0 0;
#X connect 4 0 1 0;
#X connect 5 0 4 0;
