#N canvas 837 214 653 560 10;
#X declare -lib unauthorized;
#X declare -lib easyflow;
#X declare -lib iemlib;
#X declare -lib Gem;
#X declare -lib cyclone;
#X obj -105 -159 cnv 15 650 550 empty cn_main empty 0 0 0 14 #e0e0e0 #fcfcfc 0;
#X obj -85 -142 pddplink _jk_main-help.pd -text README: First Help;
#N canvas 710 587 548 297 logo 0;
#X obj 75 75 image logo150px.gif;
#X coords 0 297 1 296 150 150 2 0 0;
#X restore 373 55 pd logo;
#X obj 173 214 jk_audio_output~;
#X obj 173 54 s~ audio_in;
#X obj 174 189 r~ audio_out;
#X obj -84 248 jk_reverb~;
#X obj -84 137 jk_combfilter~;
#X obj -84 26 jk_ssb_modulation~;
#X obj -85 -86 jk_pitch_shifter~;
#X obj 274 90 jk_theme;
#X obj 174 90 jk_3d_viewport;
#X obj 173 -115 jk_audio_input~;
#X obj 265 59 declare -lib unauthorized;
#X obj 269 188 declare -lib easyflow;
#X obj 273 461 declare -lib iemlib;
#X obj 295 430 declare -lib Gem;
#X obj 289 502 declare -lib cyclone;
#N canvas 735 336 450 300 delayme 0;
#X obj 158 59 inlet~;
#X obj 157 91 delwrite~ m 2000;
#X obj 224 183 delread~ m 2000;
#X obj 223 226 s~ audio_out;
#X connect 0 0 1 0;
#X connect 2 0 3 0;
#X restore 44 358 pd delayme;
#X obj -84 358 s~ audio_out2;
#X obj -84 -115 inlet~;
#X obj -4 402 outlet~;
#X connect 5 0 3 0;
#X connect 6 0 21 0;
#X connect 7 0 6 0;
#X connect 8 0 7 0;
#X connect 9 0 8 0;
#X connect 12 0 4 0;
#X connect 20 0 9 0;
