#N canvas 552 132 1511 852 12;
#X declare -lib else;
#X obj 405 287 adc~;
#X obj 350 378 env~;
#X msg 1061 82 \; pd dsp 1;
#X obj 687 728 delwrite~ \$0-delay 4000;
#X obj 962 547 delread~ \$0-delay;
#X obj 1196 42 declare -lib else;
#X obj 351 433 vu 20 200 empty empty -1 -10 0 12 #404040 #000000 1 0;
#X obj 350 403 - 100;
#X obj 374 345 *~;
#X obj 334 215 line~;
#X obj 801 335 else/pitch.shift~;
#X obj 867 78 phasor~;
#X floatatom 750 193 5 0 0 0 - - - 0;
#X obj 886 146 snapshot~;
#X obj 989 90 metro 50;
#X obj 988 41 bng 20 250 50 0 empty empty empty 0 -10 0 12 #fcfcfc #000000 #000000;
#X msg 919 52 0;
#X msg 962 520 2000;
#X obj 887 580 *~ 0.5;
#X obj 763 611 +~;
#X obj 962 496 loadbang;
#X obj 884 115 *~ 2000;
#X obj 828 221 osc~ 400;
#X obj 908 223 + 0;
#X obj 886 606 s~ \$0-wet;
#X obj 781 585 r~ \$0-wet;
#X obj 741 129 / 100;
#X obj 740 160 - 0.5;
#X obj 726 62 bng 20 250 50 0 empty empty empty 0 -10 0 12 #fcfcfc #000000 #000000;
#X obj 736 90 random 500;
#X obj 607 67 metro 30000;
#X obj 715 195 abs;
#X obj 680 232 < 0.03;
#X obj 606 42 loadbang;
#X obj 580 43 bng 20 250 50 0 empty empty empty 0 -10 0 12 #fcfcfc #000000 #000000;
#X obj 828 247 *~ 0.01;
#N canvas 736 358 781 300 stuff_I_did_not_use 0;
#X obj 243 147 else/noisegate~;
#X floatatom 345 122 5 0 0 0 - - - 0;
#X obj 330 262 env~;
#X obj 330 288 > 0;
#X obj 300 444 delay 2000;
#X obj 245 549 bng 20 250 50 0 empty empty empty 0 -10 0 12 #fcfcfc #000000 #000000;
#X msg 270 480 0;
#X msg 303 480 1;
#X obj 317 317 route 1;
#X obj 268 350 spigot 1;
#X msg 231 311 1;
#X obj 254 386 t b b b b;
#X obj 245 521 spigot 1;
#X obj 299 416 spigot 1;
#X obj 375 264 sigmund~;
#X floatatom 375 289 5 0 0 0 - - - 0;
#X text 385 121 <- higher is more sensitive;
#X connect 0 0 2 0;
#X connect 0 0 14 0;
#X connect 1 0 0 1;
#X connect 2 0 3 0;
#X connect 3 0 8 0;
#X connect 4 0 7 0;
#X connect 6 0 12 1;
#X connect 6 0 13 1;
#X connect 7 0 12 1;
#X connect 7 0 13 1;
#X connect 8 0 9 0;
#X connect 9 0 11 0;
#X connect 10 0 9 0;
#X connect 11 1 6 0;
#X connect 11 2 13 0;
#X connect 11 3 12 0;
#X connect 12 0 5 0;
#X connect 13 0 4 0;
#X connect 14 0 15 0;
#X restore 448 749 pd stuff_I_did_not_use;
#X obj 405 313 +~;
#X obj 803 308 +~;
#X obj 754 247 r~ \$0-mic;
#X obj 386 378 s~ \$0-mic;
#X obj 412 447 > 0;
#X obj 412 476 select 1;
#X obj 456 576 value micVol;
#X obj 474 551 - 0.1;
#X obj 424 502 t b b;
#X obj 424 528 s updateVol;
#X obj 191 131 r updateVol;
#X floatatom 282 191 5 0 0 0 - - - 0;
#X obj 334 160 value micVol 50;
#X obj 302 130 bng 20 250 50 0 empty empty empty 0 -10 0 12 #fcfcfc #000000 #000000;
#X obj 631 363 metro 1000;
#X obj 663 469 value micVol;
#X obj 631 388 t b b;
#X obj 631 416 s updateVol;
#X obj 605 334 bng 20 250 50 0 empty empty empty 0 -10 0 12 #fcfcfc #000000 #000000;
#X obj 631 334 loadbang;
#X obj 334 106 loadbang;
#X msg 334 188 \$1 100;
#X msg 836 403 size 0.75;
#X obj 836 377 loadbang;
#X obj 963 720 dac~;
#X obj 963 690 *~;
#X obj 1091 456 vsl 20 170 0 4 0 0 empty empty empty 0 -9 0 12 #fcfcfc #000000 #000000 0 1;
#X obj 1091 662 line~;
#X msg 1091 636 \$1 50;
#X obj 1091 402 loadbang;
#X obj 1014 41 loadbang;
#X obj 678 444 + 0.005;
#X floatatom 1180 632 5 0 0 0 - - - 0;
#X msg 1091 427 0.5;
#X msg 334 131 4;
#X obj 804 642 tgl 20 0 empty empty empty 0 -10 0 12 #fcfcfc #000000 #000000 0 1;
#X obj 758 653 *~;
#N canvas 891 260 450 601 vocoder 0;
#X obj 225 254 r~ \$0-mic;
#X obj 96 558 s~ myDelay;
#X obj 225 315 else/noisegate~;
#X floatatom 327 290 5 0 0 0 - - - 0;
#X text 367 289 <- higher is more sensitive;
#X obj 265 368 env~;
#X floatatom 362 447 5 0 0 0 - - - 0;
#X floatatom 47 286 5 0 0 0 - - - 0;
#X obj 182 347 > 0;
#X obj 163 374 *~;
#X obj 91 265 + 60;
#X obj 164 115 bng 20 250 50 0 empty empty empty 0 -10 0 12 #fcfcfc #000000 #000000;
#X obj 117 19 bng 20 250 50 0 empty empty empty 0 -10 0 12 #fcfcfc #000000 #000000;
#X obj 103 58 metro 500;
#X obj 70 442 *~;
#X floatatom 96 406 5 0 0 0 - - - 0;
#X obj 187 480 *~;
#X floatatom 214 449 5 0 0 0 - - - 0;
#X obj 142 142 random 200;
#X obj 150 202 line;
#X msg 150 174 \$1 500;
#X obj 76 311 else/bl.saw~ 60;
#X msg 149 21 stop;
#X floatatom 325 376 5 0 0 0 - - - 0;
#X obj 200 537 s~ e3test;
#X obj 159 414 else/vocoder~ 128 75;
#X connect 0 0 2 0;
#X connect 0 0 14 0;
#X connect 2 0 5 0;
#X connect 2 0 25 1;
#X connect 3 0 2 1;
#X connect 5 0 6 0;
#X connect 5 0 8 0;
#X connect 7 0 21 0;
#X connect 8 0 9 1;
#X connect 9 0 25 0;
#X connect 10 0 7 0;
#X connect 11 0 18 0;
#X connect 12 0 13 0;
#X connect 13 0 18 0;
#X connect 15 0 14 1;
#X connect 16 0 24 0;
#X connect 17 0 16 1;
#X connect 18 0 20 0;
#X connect 19 0 10 0;
#X connect 20 0 19 0;
#X connect 21 0 9 0;
#X connect 22 0 13 0;
#X connect 23 0 25 2;
#X connect 25 0 16 0;
#X restore 1281 84 pd vocoder;
#X obj 755 690 r~ myDelay;
#N canvas 615 61 1305 833 try2 0;
#X obj 490 97 hip~ 5;
#N canvas 735 361 450 250 (subpatch) 0;
#X array sample 480000 float 2;
#X coords 0 1 480000 -1 200 140 1 0 0;
#X restore 1072 35 graph;
#X obj 490 73 r~ \$0-mic;
#X msg 443 72 bang;
#X obj 444 9 bng 20 250 50 0 empty empty empty 0 -10 0 12 #fcfcfc #000000 #000000;
#X msg 75 274 512;
#X msg 81 297 1024;
#X msg 86 320 2048;
#X msg 91 343 4096;
#X obj 75 369 s window-size;
#X text 72 232 window size \,;
#X text 72 247 samples;
#X text 110 273 <-- set;
#N canvas 385 188 595 536 hann-window 0;
#N canvas 0 0 450 300 (subpatch) 0;
#X array hann 2048 float 0;
#X coords 0 1 2047 0 300 100 1 0 0;
#X restore 148 395 graph;
#X obj 366 185 osc~;
#X obj 366 210 *~ -0.5;
#X obj 366 234 +~ 0.5;
#X obj 124 114 r window-size;
#X obj 195 238 /;
#X obj 213 206 samplerate~;
#X obj 195 316 s window-sec;
#X obj 105 252 swap;
#X obj 105 276 /;
#X obj 105 300 s window-hz;
#X obj 206 266 * 1000;
#X obj 206 293 s window-msec;
#X obj 124 149 t f b f;
#X msg 213 156 resize \$1;
#X obj 317 123 r window-hz;
#X msg 391 155 0;
#X obj 317 151 t f b;
#X text 94 21 calculate Hann window table (variable window size) and constants window-hz (fundamental frequency of analysis) \, window-sec and window-msec (analysis window size in seconds and msec)., f 56;
#X obj 213 180 s hann;
#X obj 349 277 tabwrite~ hann;
#X connect 1 0 2 0;
#X connect 2 0 3 0;
#X connect 3 0 20 0;
#X connect 4 0 13 0;
#X connect 5 0 7 0;
#X connect 5 0 11 0;
#X connect 6 0 5 1;
#X connect 6 0 8 1;
#X connect 8 0 9 0;
#X connect 8 1 9 1;
#X connect 9 0 10 0;
#X connect 11 0 12 0;
#X connect 13 0 5 0;
#X connect 13 0 8 0;
#X connect 13 1 6 0;
#X connect 13 2 14 0;
#X connect 14 0 19 0;
#X connect 15 0 17 0;
#X connect 16 0 1 1;
#X connect 17 0 1 0;
#X connect 17 1 16 0;
#X connect 17 1 20 0;
#X restore 74 393 pd hann-window;
#X obj 378 8 loadbang;
#X obj 480 180 tabwrite~ sample, f 20;
#X obj 128 151 metro 2000;
#X obj 144 111 bng 20 250 50 0 empty empty empty 0 -10 0 12 #fcfcfc #000000 #000000;
#X obj 435 45 metro 10000;
#X obj 396 127 bng 20 250 50 0 empty empty empty 0 -10 0 12 #fcfcfc #000000 #000000;
#X msg 430 123 stop;
#X obj 618 74 osc~ 440;
#X obj 613 111 *~ 0.5;
#X obj 702 121 metro 900;
#X obj 706 85 bng 20 250 50 0 empty empty empty 0 -10 0 12 #fcfcfc #000000 #000000;
#X obj 639 152 *~;
#X obj 728 175 tgl 20 0 empty empty empty 0 -10 0 12 #fcfcfc #000000 #000000 0 1;
#X msg 481 13 stop;
#X obj 516 701 outlet~;
#X obj 324 110 bng 20 250 50 0 empty empty empty 0 -10 0 12 #fcfcfc #000000 #000000;
#X msg 733 89 stop;
#X obj 418 480 fftMe ----;
#X obj 419 448 delay 2000;
#X obj 506 479 fftMe ----;
#X obj 591 477 fftMe ----;
#X obj 679 476 fftMe ----;
#X obj 328 479 fftMe ----;
#X obj 329 447 delay 0;
#X obj 507 447 delay 4000;
#X obj 592 445 delay 6000;
#X obj 681 444 delay 8000;
#X connect 0 0 15 0;
#X connect 2 0 0 0;
#X connect 3 0 15 0;
#X connect 4 0 18 0;
#X connect 5 0 9 0;
#X connect 6 0 9 0;
#X connect 7 0 9 0;
#X connect 8 0 9 0;
#X connect 14 0 18 0;
#X connect 17 0 16 0;
#X connect 18 0 3 0;
#X connect 18 0 29 0;
#X connect 19 0 15 0;
#X connect 20 0 15 0;
#X connect 21 0 22 0;
#X connect 22 0 25 0;
#X connect 23 0 26 0;
#X connect 24 0 23 0;
#X connect 25 0 15 0;
#X connect 26 0 25 1;
#X connect 27 0 18 0;
#X connect 29 0 32 0;
#X connect 29 0 37 0;
#X connect 29 0 38 0;
#X connect 29 0 39 0;
#X connect 29 0 40 0;
#X connect 30 0 23 0;
#X connect 31 0 28 0;
#X connect 32 0 31 0;
#X connect 33 0 28 0;
#X connect 34 0 28 0;
#X connect 35 0 28 0;
#X connect 36 0 28 0;
#X connect 37 0 36 0;
#X connect 38 0 33 0;
#X connect 39 0 34 0;
#X connect 40 0 35 0;
#X restore 1281 111 pd try2;
#X obj 675 263 select 1;
#X floatatom 911 536 5 0 0 0 - - - 0;
#X obj 1222 290 hsl 128 15 0 1 0 0 empty \$0-drywet empty -2 -8 0 10 #dcdcdc #000000 #000000 0 1;
#X floatatom 1219 317 5 0 0 0 - - - 0;
#X msg 1219 340 wet \$1;
#X obj 763 559 else/plate.rev~;
#X msg 1161 314 0;
#X obj 93 768 bng 20 250 50 0 s-effect1 empty empty 0 -10 0 12 #fcfcfc #000000 #000000;
#X obj 156 768 bng 20 250 50 0 s-effect2 empty empty 0 -10 0 12 #fcfcfc #000000 #000000;
#X text 79 743 effect 1;
#X text 155 742 effect 2;
#X msg 1268 177 1;
#X msg 1304 178 0;
#X obj 1266 147 r s-effect2;
#X obj 1350 145 r s-effect1;
#X obj 1146 272 r s-effect2;
#X msg 1284 256 0.5;
#X obj 765 522 *~ 1;
#X obj 1207 201 *~ 0;
#X msg 825 493 0;
#X obj 787 462 r s-effect1;
#X obj 871 460 r s-effect2;
#X msg 786 494 1;
#X msg 807 616 1;
#X obj 855 653 loadbang;
#X obj 242 771 bng 20 250 50 0 s-effect3 empty empty 0 -10 0 12 #fcfcfc #000000 #000000;
#X text 239 741 effect 3;
#X obj 1351 114 r s-effect3;
#X obj 874 433 r s-effect3;
#N canvas 1248 266 450 300 effect3 0;
#X obj 240 21 r~ \$0-mic;
#X obj 241 71 _jk_main;
#X obj 240 113 outlet~;
#X connect 0 0 1 0;
#X connect 1 0 2 0;
#X restore 527 449 pd effect3;
#X obj 595 630 *~ 0;
#X msg 624 564 0;
#X obj 670 531 r s-effect2;
#X msg 585 565 1;
#X obj 586 533 r s-effect3;
#X obj 673 504 r s-effect1;
#X obj 169 447 netreceive;
#X msg 169 417 listen 3018;
#X msg 126 270 send where are we?;
#X obj 122 600 print;
#X floatatom 232 474 5 0 0 0 - - - 0;
#X obj 102 194 loadbang;
#X obj 104 235 metro 499;
#X obj 58 199 bng 20 250 50 0 empty empty empty 0 -10 0 12 #fcfcfc #000000 #000000;
#X obj 168 391 loadbang;
#X obj 84 535 route mode;
#X obj 84 649 route rain chant1 spaceLong laserFire spaceLaser spaceLaserTest robotTankTest;
#X connect 0 0 37 0;
#X connect 0 1 37 1;
#X connect 1 0 7 0;
#X connect 4 0 18 0;
#X connect 4 0 62 0;
#X connect 7 0 6 0;
#X connect 7 0 41 0;
#X connect 8 0 1 0;
#X connect 8 0 40 0;
#X connect 9 0 8 0;
#X connect 10 0 94 0;
#X connect 11 0 21 0;
#X connect 13 0 23 0;
#X connect 14 0 13 0;
#X connect 15 0 14 0;
#X connect 16 0 11 1;
#X connect 17 0 4 0;
#X connect 18 0 24 0;
#X connect 19 0 73 0;
#X connect 20 0 17 0;
#X connect 21 0 13 0;
#X connect 22 0 35 0;
#X connect 23 0 10 1;
#X connect 25 0 19 1;
#X connect 26 0 27 0;
#X connect 27 0 31 0;
#X connect 27 0 12 0;
#X connect 27 0 11 0;
#X connect 28 0 29 0;
#X connect 29 0 26 0;
#X connect 30 0 29 0;
#X connect 31 0 32 0;
#X connect 32 0 77 0;
#X connect 33 0 30 0;
#X connect 34 0 30 0;
#X connect 35 0 38 1;
#X connect 37 0 8 1;
#X connect 38 0 10 0;
#X connect 39 0 38 0;
#X connect 41 0 42 0;
#X connect 42 0 45 0;
#X connect 43 0 44 0;
#X connect 44 0 43 0;
#X connect 45 0 46 0;
#X connect 45 1 43 0;
#X connect 47 0 49 0;
#X connect 49 0 48 0;
#X connect 49 0 58 0;
#X connect 50 0 49 0;
#X connect 51 0 53 0;
#X connect 52 0 68 0;
#X connect 53 0 54 0;
#X connect 53 1 52 0;
#X connect 55 0 51 0;
#X connect 56 0 51 0;
#X connect 57 0 71 0;
#X connect 58 0 9 0;
#X connect 59 0 82 0;
#X connect 60 0 59 0;
#X connect 62 0 61 0;
#X connect 62 0 61 1;
#X connect 63 0 65 0;
#X connect 63 0 69 0;
#X connect 64 0 62 1;
#X connect 65 0 64 0;
#X connect 66 0 70 0;
#X connect 67 0 14 0;
#X connect 67 0 2 0;
#X connect 68 0 52 0;
#X connect 70 0 63 0;
#X connect 71 0 49 0;
#X connect 72 0 73 1;
#X connect 73 0 3 0;
#X connect 75 0 3 0;
#X connect 76 0 95 0;
#X connect 77 0 29 0;
#X connect 78 0 18 1;
#X connect 79 0 80 0;
#X connect 80 0 81 0;
#X connect 81 0 82 0;
#X connect 82 0 19 0;
#X connect 83 0 81 0;
#X connect 88 0 95 1;
#X connect 89 0 95 1;
#X connect 90 0 88 0;
#X connect 91 0 89 0;
#X connect 91 0 93 0;
#X connect 92 0 83 0;
#X connect 93 0 79 0;
#X connect 94 0 82 0;
#X connect 95 0 82 0;
#X connect 96 0 94 1;
#X connect 97 0 99 0;
#X connect 98 0 96 0;
#X connect 99 0 94 1;
#X connect 100 0 72 0;
#X connect 101 0 100 0;
#X connect 104 0 89 0;
#X connect 105 0 96 0;
#X connect 106 0 107 0;
#X connect 107 0 82 0;
#X connect 108 0 107 1;
#X connect 109 0 108 0;
#X connect 110 0 107 1;
#X connect 111 0 110 0;
#X connect 112 0 108 0;
#X connect 113 0 122 0;
#X connect 113 1 117 0;
#X connect 114 0 113 0;
#X connect 115 0 113 0;
#X connect 118 0 119 0;
#X connect 119 0 115 0;
#X connect 120 0 119 0;
#X connect 121 0 114 0;
#X connect 122 0 116 0;
#X connect 122 0 123 0;
#X connect 123 0 84 0;
#X connect 123 1 85 0;
#X connect 123 2 102 0;
#X connect 123 3 84 0;
#X connect 123 4 85 0;
#X connect 123 5 102 0;
#X connect 123 6 84 0;
