#N canvas 609 129 1311 677 12;
#X declare -lib else;
#X obj 581 633 delwrite~ \$0-delay 4000;
#X obj 1134 603 declare -lib else;
#X obj 586 496 +~;
#X obj 604 470 r~ \$0-wet;
#N canvas 736 358 781 300 stuff_I_did_not_use 0;
#X obj 243 147 else/noisegate~;
#X floatatom 345 122 5 0 0 0 - - - 0;
#X obj 330 262 env~;
#X obj 330 288 > 0;
#X obj 300 444 delay 2000;
#X obj 245 549 bng 20 250 50 0 empty empty empty 0 -10 0 12 #fcfcfc #000000 #000000;
#X msg 270 480 0;
#X msg 303 480 1;
#X obj 317 317 route 1;
#X obj 268 350 spigot 1;
#X msg 231 311 1;
#X obj 254 386 t b b b b;
#X obj 245 521 spigot 1;
#X obj 299 416 spigot 1;
#X obj 375 264 sigmund~;
#X floatatom 375 289 5 0 0 0 - - - 0;
#X text 385 121 <- higher is more sensitive;
#X connect 0 0 2 0;
#X connect 0 0 14 0;
#X connect 1 0 0 1;
#X connect 2 0 3 0;
#X connect 3 0 8 0;
#X connect 4 0 7 0;
#X connect 6 0 12 1;
#X connect 6 0 13 1;
#X connect 7 0 12 1;
#X connect 7 0 13 1;
#X connect 8 0 9 0;
#X connect 9 0 11 0;
#X connect 10 0 9 0;
#X connect 11 1 6 0;
#X connect 11 2 13 0;
#X connect 11 3 12 0;
#X connect 12 0 5 0;
#X connect 13 0 4 0;
#X connect 14 0 15 0;
#X restore 1134 578 pd stuff_I_did_not_use;
#X msg 604 404 size 0.75;
#X obj 604 378 loadbang;
#X obj 627 527 tgl 20 0 empty empty empty 0 -10 0 12 #fcfcfc #000000 #000000 0 1;
#X obj 581 538 *~;
#N canvas 891 260 450 601 vocoder 0;
#X obj 225 254 r~ \$0-mic;
#X obj 96 558 s~ myDelay;
#X obj 225 315 else/noisegate~;
#X floatatom 327 290 5 0 0 0 - - - 0;
#X text 367 289 <- higher is more sensitive;
#X obj 265 368 env~;
#X floatatom 362 447 5 0 0 0 - - - 0;
#X floatatom 47 286 5 0 0 0 - - - 0;
#X obj 182 347 > 0;
#X obj 163 374 *~;
#X obj 91 265 + 60;
#X obj 164 115 bng 20 250 50 0 empty empty empty 0 -10 0 12 #fcfcfc #000000 #000000;
#X obj 117 19 bng 20 250 50 0 empty empty empty 0 -10 0 12 #fcfcfc #000000 #000000;
#X obj 103 58 metro 500;
#X obj 70 442 *~;
#X floatatom 96 406 5 0 0 0 - - - 0;
#X obj 187 480 *~;
#X floatatom 214 449 5 0 0 0 - - - 0;
#X obj 142 142 random 200;
#X obj 150 202 line;
#X msg 150 174 \$1 500;
#X obj 76 311 else/bl.saw~ 60;
#X msg 149 21 stop;
#X floatatom 325 376 5 0 0 0 - - - 0;
#X obj 200 537 s~ e3test;
#X obj 159 414 else/vocoder~ 128 75;
#X connect 0 0 2 0;
#X connect 0 0 14 0;
#X connect 2 0 5 0;
#X connect 2 0 25 1;
#X connect 3 0 2 1;
#X connect 5 0 6 0;
#X connect 5 0 8 0;
#X connect 7 0 21 0;
#X connect 8 0 9 1;
#X connect 9 0 25 0;
#X connect 10 0 7 0;
#X connect 11 0 18 0;
#X connect 12 0 13 0;
#X connect 13 0 18 0;
#X connect 15 0 14 1;
#X connect 16 0 24 0;
#X connect 17 0 16 1;
#X connect 18 0 20 0;
#X connect 19 0 10 0;
#X connect 20 0 19 0;
#X connect 21 0 9 0;
#X connect 22 0 13 0;
#X connect 23 0 25 2;
#X connect 25 0 16 0;
#X restore 1134 628 pd vocoder;
#X obj 774 339 hsl 128 15 0 1 0 0 empty \$0-drywet empty -2 -8 0 10 #dcdcdc #000000 #000000 0 1;
#X floatatom 771 366 5 0 0 0 - - - 0;
#X msg 771 389 wet \$1;
#X obj 586 444 else/plate.rev~;
#X msg 771 303 0;
#X obj 864 278 r s-effect1;
#X obj 771 278 r s-effect2;
#X msg 630 501 1;
#X obj 675 471 loadbang;
#N canvas 1248 266 450 300 effect3 0;
#X obj 240 21 r~ \$0-mic;
#X obj 241 71 _jk_main;
#X obj 210 162 outlet~;
#X connect 0 0 1 0;
#X connect 1 0 2 0;
#X restore 585 149 pd effect3;
#X obj 118 285 micMaster 1;
#X obj 119 527 +~;
#X obj 119 704 s~ \$0-mic;
#X msg 864 305 0.125;
#X obj 581 603 lop~;
#X obj 795 429 vsl 20 170 400 2000 1 1 empty empty empty 0 -9 0 12 #fcfcfc #000000 #000000 6100 1;
#X floatatom 795 609 5 0 0 0 - - - 0;
#X obj 119 676 *~;
#N canvas 671 368 851 567 choose_effect 0;
#X obj 246 76 netreceive;
#X msg 246 46 listen 3018;
#X obj 281 228 print;
#X floatatom 313 99 5 0 0 0 - - - 0;
#X obj 245 20 loadbang;
#X obj 243 163 route mode;
#X obj 55 398 route rain chant1 spaceLong laserFire spaceLaser spaceLaserTest robotTankTest;
#X obj 187 324 loadbang;
#X obj 370 69 loadbang;
#X obj 384 156 f 0;
#X obj 404 127 + 1;
#X obj 384 182 % 2;
#X obj 381 212 select 0 1;
#X obj 355 131 bng 20 250 50 0 empty empty empty 0 -10 0 12 #fcfcfc #000000 #000000;
#X msg 27 109 send where are we?;
#X obj 73 23 loadbang;
#X obj 75 64 metro 499;
#X obj 29 28 bng 20 250 50 0 empty empty empty 0 -10 0 12 #fcfcfc #000000 #000000;
#X obj 402 340 s r-effect1;
#X obj 399 306 bng 20 250 50 0 empty empty empty 0 -10 0 12 #fcfcfc #000000 #000000;
#X obj 511 307 bng 20 250 50 0 empty empty empty 0 -10 0 12 #fcfcfc #000000 #000000;
#X obj 514 341 s r-effect3;
#X obj 355 43 bng 20 250 50 0 empty empty empty 0 -10 0 12 #fcfcfc #000000 #000000;
#X obj 370 94 metro 60000;
#X connect 0 1 3 0;
#X connect 1 0 0 0;
#X connect 4 0 1 0;
#X connect 5 0 2 0;
#X connect 5 0 6 0;
#X connect 8 0 23 0;
#X connect 9 0 11 0;
#X connect 10 0 9 1;
#X connect 11 0 10 0;
#X connect 11 0 12 0;
#X connect 12 0 19 0;
#X connect 12 1 20 0;
#X connect 13 0 9 0;
#X connect 15 0 16 0;
#X connect 16 0 14 0;
#X connect 17 0 16 0;
#X connect 19 0 18 0;
#X connect 20 0 21 0;
#X connect 22 0 23 0;
#X connect 23 0 9 0;
#X restore 1135 554 pd choose_effect;
#N canvas 152 186 658 431 toSpeaker 0;
#X obj 108 158 delread~ \$0-delay;
#X msg 108 131 2000;
#X obj 108 107 loadbang;
#X obj 109 331 dac~;
#X obj 109 301 *~;
#X obj 237 273 line~;
#X msg 237 247 \$1 50;
#X floatatom 326 243 5 0 0 0 - - - 0;
#X floatatom 75 207 5 0 0 0 - - - 0;
#X obj 22 234 *~ 0.125;
#X obj 61 57 inlet;
#X obj 21 260 outlet~;
#X obj 282 53 inlet;
#X connect 0 0 4 0;
#X connect 0 0 9 0;
#X connect 1 0 0 0;
#X connect 2 0 1 0;
#X connect 4 0 3 0;
#X connect 4 0 3 1;
#X connect 5 0 4 1;
#X connect 6 0 5 0;
#X connect 8 0 9 1;
#X connect 9 0 11 0;
#X connect 10 0 8 0;
#X connect 12 0 6 0;
#X connect 12 0 7 0;
#X restore 964 617 pd toSpeaker;
#N canvas 804 274 987 743 effect1 0;
#X obj 359 403 else/pitch.shift~;
#X obj 425 146 phasor~;
#X floatatom 308 261 5 0 0 0 - - - 0;
#X obj 444 214 snapshot~;
#X obj 547 158 metro 50;
#X obj 546 109 bng 20 250 50 0 empty empty empty 0 -10 0 12 #fcfcfc #000000 #000000;
#X msg 477 120 0;
#X obj 442 183 *~ 2000;
#X obj 386 289 osc~ 400;
#X obj 466 291 + 0;
#X obj 299 197 / 100;
#X obj 298 228 - 0.5;
#X obj 284 130 bng 20 250 50 0 empty empty empty 0 -10 0 12 #fcfcfc #000000 #000000;
#X obj 294 158 random 500;
#X obj 165 135 metro 30000;
#X obj 273 263 abs;
#X obj 238 300 < 0.03;
#X obj 164 110 loadbang;
#X obj 138 111 bng 20 250 50 0 empty empty empty 0 -10 0 12 #fcfcfc #000000 #000000;
#X obj 312 315 r~ \$0-mic;
#X obj 582 108 loadbang;
#X obj 233 331 select 1;
#X obj 361 376 +~;
#X obj 360 432 outlet~;
#X floatatom 485 353 5 0 0 0 - - - 0;
#X obj 385 90 inlet;
#X obj 386 315 *~ 0.001;
#X connect 0 0 23 0;
#X connect 1 0 7 0;
#X connect 3 0 9 0;
#X connect 4 0 3 0;
#X connect 5 0 4 0;
#X connect 6 0 1 1;
#X connect 7 0 3 0;
#X connect 8 0 26 0;
#X connect 9 0 0 1;
#X connect 9 0 24 0;
#X connect 10 0 11 0;
#X connect 11 0 15 0;
#X connect 11 0 2 0;
#X connect 11 0 1 0;
#X connect 12 0 13 0;
#X connect 13 0 10 0;
#X connect 14 0 13 0;
#X connect 15 0 16 0;
#X connect 16 0 21 0;
#X connect 17 0 14 0;
#X connect 18 0 14 0;
#X connect 19 0 22 0;
#X connect 20 0 4 0;
#X connect 21 0 13 0;
#X connect 22 0 0 0;
#X connect 25 0 26 1;
#X connect 26 0 22 1;
#X restore 483 85 pd effect1;
#X obj 964 642 s~ \$0-wet;
#X obj 964 416 vsl 20 170 0 1 0 1 empty empty 2\ sec\ delay\ wet 0 -9 0 12 #fcfcfc #000000 #000000 1695 1;
#X floatatom 923 617 5 0 0 0 - - - 0;
#X obj 1122 364 vsl 20 170 0 1 0 1 empty empty Spkr\ Vol 0 -9 0 12 #fcfcfc #000000 #000000 8600 1;
#X msg 17 35 \; pd dsp 1;
#X obj 17 9 loadbang;
#N canvas 1047 516 450 300 effect 0;
#X obj 115 48 inlet;
#X obj 181 46 inlet;
#X obj 251 47 inlet;
#X msg 148 75 0;
#X msg 185 75 0;
#X msg 115 75 1;
#X msg 218 107 0;
#X msg 213 133 0;
#X msg 148 107 0;
#X msg 181 107 1;
#X msg 180 133 0;
#X msg 251 133 1;
#X obj 115 198 outlet;
#X obj 181 198 outlet;
#X obj 251 198 outlet;
#X connect 0 0 5 0;
#X connect 0 0 3 0;
#X connect 0 0 4 0;
#X connect 1 0 8 0;
#X connect 1 0 9 0;
#X connect 1 0 6 0;
#X connect 2 0 10 0;
#X connect 2 0 7 0;
#X connect 2 0 11 0;
#X connect 3 0 13 0;
#X connect 4 0 14 0;
#X connect 5 0 12 0;
#X connect 6 0 14 0;
#X connect 7 0 13 0;
#X connect 8 0 12 0;
#X connect 9 0 13 0;
#X connect 10 0 12 0;
#X connect 11 0 14 0;
#X restore 502 250 pd effect mixer;
#X obj 484 282 *~;
#X obj 535 281 *~;
#X obj 586 281 *~;
#X obj 502 174 r s-effect1;
#X obj 553 198 r s-effect2;
#X obj 604 222 r s-effect3;
#N canvas 615 61 1305 833 effect2 0;
#X obj 490 97 hip~ 5;
#N canvas 735 361 450 250 (subpatch) 0;
#X array sample 480000 float 2;
#X coords 0 1 480000 -1 200 140 1 0 0;
#X restore 1072 35 graph;
#X obj 490 73 r~ \$0-mic;
#X msg 443 72 bang;
#X obj 444 9 bng 20 250 50 0 empty empty empty 0 -10 0 12 #fcfcfc #000000 #000000;
#X msg 75 274 512;
#X msg 81 297 1024;
#X msg 86 320 2048;
#X msg 91 343 4096;
#X obj 75 369 s window-size;
#X text 72 232 window size \,;
#X text 72 247 samples;
#X text 110 273 <-- set;
#N canvas 385 188 595 536 hann-window 0;
#N canvas 0 0 450 300 (subpatch) 0;
#X array hann 2048 float 0;
#X coords 0 1 2047 0 300 100 1 0 0;
#X restore 148 395 graph;
#X obj 366 185 osc~;
#X obj 366 210 *~ -0.5;
#X obj 366 234 +~ 0.5;
#X obj 124 114 r window-size;
#X obj 195 238 /;
#X obj 213 206 samplerate~;
#X obj 195 316 s window-sec;
#X obj 105 252 swap;
#X obj 105 276 /;
#X obj 105 300 s window-hz;
#X obj 206 266 * 1000;
#X obj 206 293 s window-msec;
#X obj 124 149 t f b f;
#X msg 213 156 resize \$1;
#X obj 317 123 r window-hz;
#X msg 391 155 0;
#X obj 317 151 t f b;
#X text 94 21 calculate Hann window table (variable window size) and constants window-hz (fundamental frequency of analysis) \, window-sec and window-msec (analysis window size in seconds and msec)., f 56;
#X obj 213 180 s hann;
#X obj 349 277 tabwrite~ hann;
#X connect 1 0 2 0;
#X connect 2 0 3 0;
#X connect 3 0 20 0;
#X connect 4 0 13 0;
#X connect 5 0 7 0;
#X connect 5 0 11 0;
#X connect 6 0 5 1;
#X connect 6 0 8 1;
#X connect 8 0 9 0;
#X connect 8 1 9 1;
#X connect 9 0 10 0;
#X connect 11 0 12 0;
#X connect 13 0 5 0;
#X connect 13 0 8 0;
#X connect 13 1 6 0;
#X connect 13 2 14 0;
#X connect 14 0 19 0;
#X connect 15 0 17 0;
#X connect 16 0 1 1;
#X connect 17 0 1 0;
#X connect 17 1 16 0;
#X connect 17 1 20 0;
#X restore 74 393 pd hann-window;
#X obj 378 8 loadbang;
#X obj 480 180 tabwrite~ sample, f 20;
#X obj 128 151 metro 2000;
#X obj 144 111 bng 20 250 50 0 empty empty empty 0 -10 0 12 #fcfcfc #000000 #000000;
#X obj 435 45 metro 10000;
#X obj 396 127 bng 20 250 50 0 empty empty empty 0 -10 0 12 #fcfcfc #000000 #000000;
#X msg 430 123 stop;
#X obj 618 74 osc~ 440;
#X obj 613 111 *~ 0.5;
#X obj 702 121 metro 900;
#X obj 706 85 bng 20 250 50 0 empty empty empty 0 -10 0 12 #fcfcfc #000000 #000000;
#X obj 639 152 *~;
#X obj 728 175 tgl 20 0 empty empty empty 0 -10 0 12 #fcfcfc #000000 #000000 0 1;
#X msg 481 13 stop;
#X obj 516 701 outlet~;
#X obj 324 110 bng 20 250 50 0 empty empty empty 0 -10 0 12 #fcfcfc #000000 #000000;
#X msg 733 89 stop;
#X obj 418 480 fftMe ----;
#X obj 419 448 delay 2000;
#X obj 506 479 fftMe ----;
#X obj 591 477 fftMe ----;
#X obj 679 476 fftMe ----;
#X obj 328 479 fftMe ----;
#X obj 329 447 delay 0;
#X obj 507 447 delay 4000;
#X obj 592 445 delay 6000;
#X obj 681 444 delay 8000;
#X connect 0 0 15 0;
#X connect 2 0 0 0;
#X connect 3 0 15 0;
#X connect 4 0 18 0;
#X connect 5 0 9 0;
#X connect 6 0 9 0;
#X connect 7 0 9 0;
#X connect 8 0 9 0;
#X connect 14 0 18 0;
#X connect 17 0 16 0;
#X connect 18 0 3 0;
#X connect 18 0 29 0;
#X connect 19 0 15 0;
#X connect 20 0 15 0;
#X connect 21 0 22 0;
#X connect 22 0 25 0;
#X connect 23 0 26 0;
#X connect 24 0 23 0;
#X connect 25 0 15 0;
#X connect 26 0 25 1;
#X connect 27 0 18 0;
#X connect 29 0 32 0;
#X connect 29 0 37 0;
#X connect 29 0 38 0;
#X connect 29 0 39 0;
#X connect 29 0 40 0;
#X connect 30 0 23 0;
#X connect 31 0 28 0;
#X connect 32 0 31 0;
#X connect 33 0 28 0;
#X connect 34 0 28 0;
#X connect 35 0 28 0;
#X connect 36 0 28 0;
#X connect 37 0 36 0;
#X connect 38 0 33 0;
#X connect 39 0 34 0;
#X connect 40 0 35 0;
#X restore 536 118 pd effect2;
#X obj 995 36 hsl 170 20 0 1 0 0 empty empty Quality -2 -10 0 12 #fcfcfc #000000 #000000 0 1;
#X obj 1034 96 hsl 170 20 0 127 0 1 empty empty MinPower -2 -10 0 12 #fcfcfc #000000 #000000 6600 1;
#X obj 1073 157 hsl 170 20 0 50 0 1 empty empty Growth -2 -10 0 12 #fcfcfc #000000 #000000 2400 1;
#X floatatom 1001 63 5 0 0 0 - - - 0;
#X floatatom 1041 120 5 0 0 0 - - - 0;
#X floatatom 1081 183 5 0 0 0 - - - 0;
#X obj 986 276 bng 20 250 50 0 empty empty empty 0 -10 0 12 #fcfcfc #000000 #000000;
#X obj 136 643 r~ setMicVol;
#N canvas 896 325 690 609 setMic 0;
#X obj 203 380 s~ setMicVol;
#X obj 202 355 line~;
#X obj 186 33 inlet;
#X obj 184 158 spigot 1;
#X msg 236 130 0;
#X obj 274 55 delay 4000;
#X msg 274 81 1;
#X obj 186 63 t b b;
#X msg 188 207 1 10;
#X obj 246 205 delay 2000;
#X msg 246 239 0 10;
#X obj 362 133 s waiting;
#X obj 373 220 s live;
#X msg 373 173 1;
#X msg 404 173 0;
#X msg 364 324 1;
#X msg 402 324 0;
#X obj 368 362 s playback;
#X connect 1 0 0 0;
#X connect 2 0 7 0;
#X connect 3 0 5 0;
#X connect 3 0 8 0;
#X connect 3 0 9 0;
#X connect 3 0 13 0;
#X connect 4 0 3 1;
#X connect 4 0 11 0;
#X connect 5 0 6 0;
#X connect 6 0 3 1;
#X connect 6 0 11 0;
#X connect 6 0 16 0;
#X connect 7 0 4 0;
#X connect 7 1 3 0;
#X connect 8 0 1 0;
#X connect 9 0 10 0;
#X connect 9 0 14 0;
#X connect 9 0 15 0;
#X connect 10 0 1 0;
#X connect 13 0 12 0;
#X connect 14 0 12 0;
#X connect 15 0 17 0;
#X connect 16 0 17 0;
#X restore 1038 264 pd setMic;
#X obj 386 414 - 100;
#X obj 386 387 env~;
#X obj 120 558 s~ rawMic;
#X obj 954 188 r~ rawMic;
#X obj 386 362 r~ \$0-mic;
#X obj 51 583 delwrite~ micDel 500;
#X obj 54 612 delread~ micDel 100;
#X obj 735 195 r~ rawMic;
#X obj 729 22 hsl 170 20 0 127 0 1 empty empty low\ thresh -2 -10 0 12 #fcfcfc #000000 #000000 3400 1;
#X obj 750 83 hsl 170 20 0 127 0 1 empty empty high\ thresh -2 -10 0 12 #fcfcfc #000000 #000000 7000 1;
#X floatatom 738 49 5 0 0 0 - - - 0;
#X floatatom 764 107 5 0 0 0 - - - 0;
#X obj 727 134 t b f;
#X obj 735 164 pack f f;
#X obj 805 133 hsl 170 20 0 127 0 1 empty empty min\ velocity -2 -10 0 12 #fcfcfc #000000 #000000 3200 1;
#X floatatom 818 161 5 0 0 0 - - - 0;
#X obj 736 252 print;
#X obj 708 253 bng 20 250 50 0 empty empty empty 0 -10 0 12 #fcfcfc #000000 #000000;
#X obj 387 446 vu 20 200 empty empty -1 -10 0 12 #404040 #000000 1 0;
#X obj 485 40 hsl 170 20 0 0.01 0 1 empty empty oscil\ amp -2 -10 0 12 #fcfcfc #000000 #000000 0 1;
#X floatatom 501 63 5 0 0 0 - - - 0;
#X floatatom 84 212 5 0 0 0 - - - 0;
#X obj 41 318 vsl 20 170 0 500 0 1 empty empty Mic\ Delay 0 -9 0 12 #fcfcfc #000000 #000000 3381 1;
#X floatatom 20 501 5 0 0 0 - - - 0;
#X obj 118 23 vsl 20 170 0 5 0 1 empty empty Initial\ Mic\ Vol 0 -9 0 12 #fcfcfc #000000 #000000 3400 1;
#X floatatom 1058 539 5 0 0 0 - - - 0;
#X obj 200 37 vsl 20 170 -50 -10 0 1 empty empty Noisegate 0 -9 0 12 #fcfcfc #000000 #000000 0 1;
#X floatatom 160 221 5 0 0 0 - - - 0;
#X obj 143 175 tgl 20 1 empty empty auto\ lvl 0 -10 0 12 #fcfcfc #000000 #000000 0 1;
#X obj 223 189 tgl 20 1 empty empty auto 0 -10 0 12 #fcfcfc #000000 #000000 0 1;
#X obj 254 51 vsl 20 170 0 5 0 1 empty empty Noise\ Filter 0 -9 0 12 #fcfcfc #000000 #000000 0 1;
#X floatatom 254 232 5 0 0 0 - - - 0;
#X obj 241 357 vsl 20 170 0 500 0 1 empty empty mic\ delay 0 -9 0 12 #fcfcfc #000000 #000000 3383 1;
#X floatatom 266 549 5 0 0 0 - - - 0;
#N canvas 970 267 883 634 detectSigmund 0;
#X floatatom 147 340 5 0 0 0 - - - 0;
#X msg 157 211 minpower \$1;
#X msg 188 233 growth \$1;
#X msg 128 188 quality \$1;
#X obj 128 256 sigmund~ -maxfreq 1000 -growth 20 notes;
#X obj 181 316 change;
#X obj 198 348 bng 20 250 50 0 empty empty empty 0 -10 0 12 #fcfcfc #000000 #000000;
#X obj 128 284 moses 40;
#X obj 147 316 mtof;
#X obj 181 376 outlet;
#X obj 31 156 inlet~;
#X obj 128 119 inlet;
#X obj 157 144 inlet;
#X obj 188 165 inlet;
#X connect 1 0 4 0;
#X connect 2 0 4 0;
#X connect 3 0 4 0;
#X connect 4 0 7 0;
#X connect 5 0 6 0;
#X connect 5 0 9 0;
#X connect 7 1 5 0;
#X connect 7 1 8 0;
#X connect 8 0 0 0;
#X connect 10 0 4 0;
#X connect 11 0 3 0;
#X connect 12 0 1 0;
#X connect 13 0 2 0;
#X restore 954 222 pd detectSigmund;
#N canvas 242 1372 342 330 detectBonk 0;
#X obj 97 105 inlet~;
#X obj 150 272 outlet;
#X obj 118 133 inlet;
#X obj 138 155 inlet;
#X obj 118 243 bonk~;
#X msg 118 179 thresh \$1 \$2;
#X msg 138 211 minvel \$1;
#X connect 0 0 4 0;
#X connect 2 0 5 0;
#X connect 3 0 6 0;
#X connect 4 1 1 0;
#X connect 5 0 4 0;
#X connect 6 0 4 0;
#X restore 736 225 pd detectBonk;
#X obj 294 206 bng 20 250 50 0 s-effect1 r-effect1 effect\ 1 0 -10 0 12 #fcfcfc #000000 #000000;
#X obj 324 219 bng 20 250 50 0 s-effect2 r-effect2 effect\ 2 0 -10 0 12 #fcfcfc #000000 #000000;
#X obj 356 234 bng 20 250 50 0 s-effect3 r-effect3 effect\ 3 0 -10 0 12 #fcfcfc #000000 #000000;
#X obj 310 109 hradio 20 1 0 3 empty empty effect 0 -10 0 12 #fcfcfc #000000 #000000 0;
#X obj 313 139 select 0 1 2;
#X obj 413 64 tgl 20 0 empty waiting waiting 0 -10 0 12 #fcfcfc #000000 #000000 0 1;
#X obj 413 105 tgl 20 0 empty live live 0 -10 0 12 #fcfcfc #000000 #000000 0 1;
#X obj 411 145 tgl 20 0 empty playback playback 0 -10 0 12 #fcfcfc #000000 #000000 0 1;
#X msg 320 69 0;
#X obj 317 33 loadbang;
#X connect 2 0 8 0;
#X connect 3 0 2 1;
#X connect 5 0 13 0;
#X connect 6 0 5 0;
#X connect 7 0 8 1;
#X connect 8 0 24 0;
#X connect 10 0 11 0;
#X connect 11 0 12 0;
#X connect 12 0 13 0;
#X connect 13 0 2 0;
#X connect 14 0 10 0;
#X connect 15 0 23 0;
#X connect 16 0 14 0;
#X connect 17 0 7 0;
#X connect 18 0 17 0;
#X connect 19 0 40 0;
#X connect 20 0 21 0;
#X connect 21 0 56 0;
#X connect 21 0 59 0;
#X connect 23 0 10 0;
#X connect 24 0 0 0;
#X connect 25 0 24 1;
#X connect 25 0 26 0;
#X connect 27 0 22 0;
#X connect 29 0 31 0;
#X connect 30 0 38 0;
#X connect 32 0 33 0;
#X connect 32 0 29 0;
#X connect 34 0 29 1;
#X connect 34 0 79 0;
#X connect 36 0 35 0;
#X connect 37 0 38 1;
#X connect 37 1 39 1;
#X connect 37 2 40 1;
#X connect 38 0 13 0;
#X connect 39 0 13 0;
#X connect 40 0 13 0;
#X connect 41 0 37 0;
#X connect 42 0 37 1;
#X connect 43 0 37 2;
#X connect 44 0 39 0;
#X connect 45 0 88 1;
#X connect 45 0 48 0;
#X connect 46 0 88 2;
#X connect 46 0 49 0;
#X connect 47 0 88 3;
#X connect 47 0 50 0;
#X connect 52 0 27 1;
#X connect 54 0 72 0;
#X connect 55 0 54 0;
#X connect 57 0 88 0;
#X connect 58 0 55 0;
#X connect 60 0 27 0;
#X connect 61 0 89 0;
#X connect 62 0 64 0;
#X connect 62 0 67 0;
#X connect 63 0 65 0;
#X connect 63 0 66 0;
#X connect 66 0 67 0;
#X connect 66 1 67 1;
#X connect 67 0 89 1;
#X connect 68 0 69 0;
#X connect 68 0 89 2;
#X connect 73 0 74 0;
#X connect 73 0 30 0;
#X connect 76 0 77 0;
#X connect 76 0 60 0;
#X connect 78 0 75 0;
#X connect 78 0 20 0;
#X connect 80 0 81 0;
#X connect 80 0 20 2;
#X connect 82 0 20 1;
#X connect 83 0 20 3;
#X connect 84 0 85 0;
#X connect 84 0 20 4;
#X connect 86 0 87 0;
#X connect 86 0 60 0;
#X connect 88 0 51 0;
#X connect 88 0 53 0;
#X connect 89 0 70 0;
#X connect 89 0 71 0;
#X connect 93 0 94 0;
#X connect 94 0 90 0;
#X connect 94 1 91 0;
#X connect 94 2 92 0;
#X connect 98 0 93 0;
#X connect 99 0 98 0;
