#N canvas 183 301 821 633 12;
#X text 315 160 normal;
#X msg 278 136 200;
#X msg 286 160 100;
#X msg 293 184 20;
#X text 307 135 contract;
#X text 323 184 expand;
#X obj 243 290 myFFT;
#X floatatom 202 169 5 0 0 0 - - - 0;
#X msg 246 238 0;
#X obj 224 367 env~;
#X obj 368 260 line;
#X obj 199 84 bng 20 250 50 0 empty empty empty 0 -10 0 12 #fcfcfc #000000 #000000;
#X obj 199 113 random 1500;
#X obj 202 141 - 750;
#X floatatom 372 306 5 0 0 0 - - - 0;
#X obj 376 113 random 180;
#X obj 378 138 + 20;
#X obj 199 56 inlet;
#X obj 270 42 inlet;
#X obj 290 85 / 2;
#X obj 433 74 inlet;
#X obj 488 76 inlet;
#X obj 418 177 pack f f;
#X msg 488 146 100;
#X obj 498 117 loadbang;
#X msg 387 216 \$1 \$2;
#X obj 227 402 outlet;
#X obj 157 401 outlet~;
#X connect 1 0 6 2;
#X connect 2 0 6 2;
#X connect 3 0 6 2;
#X connect 6 0 9 0;
#X connect 6 0 27 0;
#X connect 7 0 6 0;
#X connect 8 0 6 1;
#X connect 9 0 26 0;
#X connect 10 0 6 2;
#X connect 10 0 14 0;
#X connect 11 0 12 0;
#X connect 11 0 15 0;
#X connect 12 0 13 0;
#X connect 13 0 7 0;
#X connect 15 0 16 0;
#X connect 16 0 22 0;
#X connect 17 0 11 0;
#X connect 18 0 12 1;
#X connect 18 0 19 0;
#X connect 19 0 13 1;
#X connect 20 0 15 1;
#X connect 21 0 22 1;
#X connect 22 0 25 0;
#X connect 23 0 22 1;
#X connect 24 0 23 0;
#X connect 25 0 10 0;
