#N canvas 0 0 1280 627 12;
#X obj 342 368 env~;
#X obj 19 11 vu 20 200 empty empty -1 -10 0 12 #404040 #000000 1 0;
#X obj 412 422 - 100;
#X obj 379 215 *~;
#X obj 334 145 line~;
#X obj 414 187 +~;
#X obj 412 476 select 1;
#X obj 474 551 - 0.1;
#X obj 424 502 t b b;
#X floatatom 282 121 5 0 0 0 - - - 0;
#X obj 231 30 bng 20 250 50 0 empty empty empty 0 -10 0 12 #fcfcfc #000000 #000000;
#X msg 334 118 \$1 100;
#X obj 334 90 value \$0-micVol 50;
#X obj 414 161 adc~ \$1;
#X obj 456 576 value \$0-micVol;
#X obj 424 528 s \$0-updateVol;
#X obj 334 -10 r \$0-updateVol;
#X obj 412 447 > -2;
#X obj 221 466 metro 1000;
#X obj 221 491 t b b;
#X obj 195 437 bng 20 250 50 0 empty empty empty 0 -10 0 12 #fcfcfc #000000 #000000;
#X obj 221 437 loadbang;
#X obj 268 547 + 0.005;
#X obj 253 572 value \$0-micVol;
#X obj 221 519 s \$0-updateVol;
#X obj 380 364 outlet~;
#X obj 380 260 else/noisegate~;
#X floatatom 482 231 5 0 0 0 - - - 0;
#X obj 749 409 vsl 20 170 -50 0 0 0 empty empty empty 0 -9 0 12 #fcfcfc #000000 #000000 0 1;
#X obj 775 406 - 0.01;
#X obj 699 312 bng 20 250 50 0 empty empty empty 0 -10 0 12 #fcfcfc #000000 #000000;
#X msg 731 303 stop;
#X obj 888 209 delay 5000;
#X obj 888 65 select 0;
#X msg 769 132 stop;
#X obj 888 155 spigot 1;
#X obj 941 92 t b b;
#X msg 941 119 0;
#X msg 888 119 1;
#X obj 776 339 + 0.1;
#X msg 814 169 bang;
#X obj 887 245 bng 20 250 50 0 empty empty empty 0 -10 0 12 #fcfcfc #000000 #000000;
#X obj 780 171 bng 20 250 50 0 empty empty empty 0 -10 0 12 #fcfcfc #000000 #000000;
#X obj 697 336 metro 100;
#X obj 628 313 loadbang;
#X floatatom 300 398 5 0 0 0 - - - 0;
#X obj 908 184 bng 20 250 50 0 empty empty empty 0 -10 0 12 #fcfcfc #000000 #000000;
#X obj 769 263 metro 100;
#X msg 776 297 0.1;
#X obj 776 375 f -30;
#X obj 263 24 inlet;
#X obj 482 149 inlet;
#X obj 342 421 s \$0-env;
#X obj 888 36 r \$0-env;
#X obj 387 14 inlet;
#X obj 334 42 spigot 0;
#X obj 565 152 inlet;
#X obj 512 190 spigot 0;
#X obj 381 301 MultibandNoiseFilter;
#X obj 630 244 inlet;
#X obj 334 66 t b f;
#X connect 0 0 2 0;
#X connect 0 0 45 0;
#X connect 0 0 52 0;
#X connect 2 0 1 0;
#X connect 2 0 17 0;
#X connect 3 0 26 0;
#X connect 4 0 3 0;
#X connect 5 0 3 1;
#X connect 6 0 8 0;
#X connect 7 0 14 0;
#X connect 8 0 15 0;
#X connect 8 1 14 0;
#X connect 10 0 12 0;
#X connect 11 0 4 0;
#X connect 12 0 9 0;
#X connect 12 0 11 0;
#X connect 13 0 5 0;
#X connect 14 0 7 0;
#X connect 16 0 55 0;
#X connect 17 0 6 0;
#X connect 18 0 19 0;
#X connect 19 0 24 0;
#X connect 19 1 23 0;
#X connect 20 0 18 0;
#X connect 21 0 18 0;
#X connect 22 0 23 0;
#X connect 23 0 22 0;
#X connect 26 0 58 0;
#X connect 27 0 26 1;
#X connect 28 0 57 0;
#X connect 29 0 49 1;
#X connect 30 0 43 0;
#X connect 31 0 43 0;
#X connect 32 0 40 0;
#X connect 32 0 41 0;
#X connect 33 0 34 0;
#X connect 33 0 38 0;
#X connect 33 1 36 0;
#X connect 34 0 32 0;
#X connect 34 0 47 0;
#X connect 34 0 42 0;
#X connect 35 0 32 0;
#X connect 35 0 46 0;
#X connect 36 0 37 0;
#X connect 36 1 35 0;
#X connect 37 0 35 1;
#X connect 38 0 35 1;
#X connect 39 0 49 0;
#X connect 40 0 47 0;
#X connect 43 0 49 0;
#X connect 44 0 43 0;
#X connect 47 0 48 0;
#X connect 48 0 39 0;
#X connect 49 0 29 0;
#X connect 49 0 39 1;
#X connect 49 0 28 0;
#X connect 50 0 60 0;
#X connect 51 0 27 0;
#X connect 53 0 33 0;
#X connect 54 0 55 1;
#X connect 55 0 60 0;
#X connect 56 0 57 1;
#X connect 57 0 27 0;
#X connect 58 0 0 0;
#X connect 58 0 25 0;
#X connect 59 0 58 1;
#X connect 60 0 12 0;
#X connect 60 1 12 0;
#X coords 0 -1 1 1 80 230 2 0 0;
