#N canvas 90 41 888 796 12;
#X obj 350 378 env~;
#X obj 19 11 vu 20 200 empty empty -1 -10 0 12 #404040 #000000 1 0;
#X obj 350 403 - 100;
#X obj 374 345 *~;
#X obj 334 215 line~;
#X obj 405 313 +~;
#X obj 412 476 select 1;
#X obj 474 551 - 0.1;
#X obj 424 502 t b b;
#X floatatom 282 191 5 0 0 0 - - - 0;
#X obj 302 130 bng 20 250 50 0 empty empty empty 0 -10 0 12 #fcfcfc #000000 #000000;
#X obj 334 106 loadbang;
#X msg 334 188 \$1 100;
#X msg 334 131 4;
#X obj 334 160 value \$0-micVol 50;
#X obj 405 287 adc~ \$1;
#X obj 456 576 value \$0-micVol;
#X obj 424 528 s \$0-updateVol;
#X obj 191 131 r \$0-updateVol;
#X obj 412 447 > -2;
#X obj 631 363 metro 1000;
#X obj 631 388 t b b;
#X obj 605 334 bng 20 250 50 0 empty empty empty 0 -10 0 12 #fcfcfc #000000 #000000;
#X obj 631 334 loadbang;
#X obj 678 444 + 0.005;
#X obj 663 469 value \$0-micVol;
#X obj 631 416 s \$0-updateVol;
#X obj 386 378 outlet~;
#X connect 0 0 2 0;
#X connect 2 0 1 0;
#X connect 2 0 19 0;
#X connect 3 0 0 0;
#X connect 3 0 27 0;
#X connect 4 0 3 0;
#X connect 5 0 3 1;
#X connect 6 0 8 0;
#X connect 7 0 16 0;
#X connect 8 0 17 0;
#X connect 8 1 16 0;
#X connect 10 0 14 0;
#X connect 11 0 13 0;
#X connect 12 0 4 0;
#X connect 13 0 14 0;
#X connect 14 0 9 0;
#X connect 14 0 12 0;
#X connect 15 0 5 0;
#X connect 16 0 7 0;
#X connect 18 0 14 0;
#X connect 19 0 6 0;
#X connect 20 0 21 0;
#X connect 21 0 26 0;
#X connect 21 1 25 0;
#X connect 22 0 20 0;
#X connect 23 0 20 0;
#X connect 24 0 25 0;
#X connect 25 0 24 0;
#X coords 0 -1 1 1 80 230 2 0 0;
